<?xml version="1.0" standalone="no"?>
<!DOCTYPE svg PUBLIC "-//W3C//DTD SVG 20010904//EN"
 "http://www.w3.org/TR/2001/REC-SVG-20010904/DTD/svg10.dtd">
<svg version="1.0" xmlns="http://www.w3.org/2000/svg"
 width="1096.000000pt" height="1096.000000pt" viewBox="0 0 1096.000000 1096.000000"
 preserveAspectRatio="xMidYMid meet">
<metadata>
Created by potrace 1.14, written by Peter Selinger 2001-2017
</metadata>
<g transform="translate(0.000000,1096.000000) scale(0.100000,-0.100000)"
fill="#000000" stroke="none">
<path d="M20 9545 c-4 -11 -5 -24 -3 -28 3 -5 7 -34 9 -65 2 -31 6 -79 9 -107
3 -27 7 -75 9 -106 2 -30 7 -84 11 -120 8 -68 11 -95 19 -200 3 -37 8 -89 11
-118 3 -28 8 -79 11 -114 2 -34 6 -78 8 -97 3 -19 7 -69 10 -110 3 -41 8 -95
11 -120 3 -25 7 -72 10 -105 2 -33 7 -82 10 -110 10 -107 16 -162 20 -220 6
-68 11 -134 20 -220 3 -33 8 -82 10 -110 5 -68 14 -160 20 -215 3 -25 7 -72
10 -105 3 -33 7 -85 10 -115 3 -30 8 -82 11 -115 3 -33 7 -73 8 -90 2 -16 7
-70 10 -120 4 -49 9 -103 11 -120 1 -16 6 -61 10 -100 4 -38 8 -86 10 -105 2
-19 7 -73 10 -120 4 -47 8 -98 10 -115 3 -16 7 -64 10 -105 4 -41 8 -91 10
-110 7 -57 18 -193 19 -217 0 -13 2 -23 6 -23 3 0 5 -24 6 -53 0 -46 6 -113
19 -257 3 -25 7 -71 10 -104 2 -32 7 -75 9 -95 3 -20 8 -70 11 -111 3 -41 8
-100 11 -130 4 -30 8 -75 9 -100 5 -71 15 -182 20 -215 3 -17 8 -69 11 -115 3
-47 7 -100 10 -120 2 -19 6 -55 8 -80 6 -81 17 -194 22 -240 2 -25 7 -72 9
-105 3 -33 8 -85 10 -115 3 -30 7 -75 10 -100 6 -60 17 -175 20 -225 2 -22 4
-40 5 -40 1 0 3 -22 4 -50 2 -27 7 -84 11 -125 4 -41 9 -95 11 -120 9 -84 13
-135 18 -210 3 -41 8 -88 10 -105 5 -31 15 -141 21 -230 2 -27 4 -50 5 -50 1
0 3 -20 4 -45 3 -46 13 -152 21 -225 3 -22 7 -69 10 -105 3 -36 7 -85 9 -110
3 -25 7 -76 11 -115 3 -38 8 -90 11 -115 3 -25 7 -74 10 -110 2 -36 6 -81 8
-100 3 -19 7 -71 11 -115 3 -44 8 -92 10 -106 3 -15 7 -61 9 -104 3 -43 9 -82
15 -88 6 -6 331 -10 913 -9 497 0 915 1 929 1 23 1 31 11 62 79 19 42 76 161
125 263 50 102 116 239 147 305 32 65 83 171 113 234 31 63 56 117 57 120 1 3
27 59 59 125 286 591 306 633 306 644 0 6 5 11 10 11 6 0 10 5 10 11 0 6 21
54 46 107 148 307 194 405 194 413 0 5 5 9 10 9 6 0 9 3 8 7 -2 8 15 46 140
303 41 85 98 205 127 265 29 61 75 158 104 216 28 59 51 112 51 118 0 6 5 11
10 11 6 0 10 4 10 9 0 10 57 133 175 376 43 88 102 212 132 275 145 302 179
374 235 490 91 191 92 195 101 201 5 3 7 8 6 10 -2 2 18 48 44 103 26 54 47
102 47 107 0 5 4 9 10 9 5 0 9 3 7 8 -1 4 17 46 40 92 74 150 143 300 143 310
0 6 5 10 10 10 6 0 10 4 10 9 0 9 29 71 187 401 36 74 80 167 98 205 18 39 55
116 83 172 27 56 47 104 44 107 -3 3 0 6 6 6 7 0 12 4 12 9 0 5 41 93 91 197
50 104 111 230 134 279 69 146 185 387 203 425 9 19 21 38 25 41 5 3 8 9 8 13
-2 8 28 72 140 301 51 105 93 192 94 195 0 3 22 49 48 104 26 54 47 102 47
107 0 5 4 9 10 9 5 0 9 3 8 8 -1 4 22 57 51 117 54 111 84 176 86 185 0 3 6
15 13 28 7 12 11 22 10 23 -4 1 -1670 1 -1683 0 -9 -1 -27 -34 -39 -71 -1 -3
-17 -36 -34 -74 -18 -38 -32 -71 -32 -74 0 -2 -13 -31 -30 -63 -16 -33 -29
-60 -28 -62 0 -1 -14 -33 -31 -72 -18 -38 -34 -74 -36 -80 -1 -5 -17 -41 -34
-80 -18 -38 -51 -110 -73 -160 -22 -49 -53 -118 -69 -153 -16 -35 -32 -74 -35
-88 -3 -13 -10 -24 -15 -24 -5 0 -9 -5 -9 -11 0 -10 -16 -49 -65 -154 -27 -60
-58 -128 -60 -135 0 -3 -12 -30 -25 -60 -14 -30 -23 -57 -21 -59 1 -2 -1 -7
-6 -10 -12 -8 -53 -97 -53 -116 0 -8 -4 -15 -10 -15 -5 0 -10 -6 -10 -13 0 -8
-6 -27 -14 -43 -8 -16 -45 -96 -81 -179 -37 -82 -70 -154 -73 -160 -4 -5 -7
-14 -8 -20 -1 -5 -18 -44 -37 -85 -19 -41 -35 -78 -36 -83 0 -4 -8 -22 -18
-40 -9 -17 -18 -34 -18 -37 -1 -3 -12 -27 -24 -55 -37 -81 -44 -100 -43 -107
1 -5 -3 -8 -9 -8 -5 0 -8 -4 -5 -9 3 -5 -1 -14 -9 -21 -8 -7 -15 -20 -15 -29
0 -9 -8 -29 -18 -46 -10 -16 -24 -49 -32 -72 -7 -24 -17 -43 -22 -43 -4 0 -8
-7 -8 -15 0 -9 -10 -35 -22 -58 -12 -23 -23 -46 -24 -52 -1 -5 -23 -54 -48
-107 -25 -54 -48 -109 -52 -123 -3 -14 -10 -25 -15 -25 -5 0 -9 -8 -9 -17 0
-10 -9 -32 -19 -49 -10 -17 -22 -45 -26 -62 -3 -18 -11 -32 -16 -32 -5 0 -9
-5 -9 -11 0 -13 -51 -131 -60 -139 -3 -3 -6 -11 -8 -19 -2 -8 -12 -32 -23 -54
-10 -23 -19 -47 -19 -54 0 -7 -4 -13 -10 -13 -5 0 -10 -8 -10 -18 0 -10 -6
-26 -13 -37 -8 -11 -21 -38 -29 -60 -9 -22 -34 -80 -57 -128 -23 -49 -41 -90
-41 -92 0 -2 -16 -38 -36 -82 -20 -43 -47 -102 -60 -131 -13 -28 -36 -80 -50
-115 -14 -34 -30 -66 -34 -72 -4 -5 -11 -21 -15 -34 -4 -13 -25 -61 -46 -107
-22 -46 -39 -88 -39 -94 0 -5 -4 -10 -8 -10 -5 0 -9 -6 -9 -12 0 -7 -15 -44
-33 -83 -19 -38 -34 -72 -35 -75 -2 -8 -21 -50 -46 -105 -12 -27 -22 -53 -21
-57 1 -5 -3 -8 -10 -8 -6 0 -9 -2 -6 -6 3 -3 -8 -33 -24 -67 -17 -34 -31 -66
-33 -72 -1 -5 -17 -41 -35 -80 -61 -132 -138 -311 -148 -345 -10 -35 -98 -292
-109 -320 -4 -8 -7 -17 -8 -20 -8 -33 -40 -118 -48 -127 -5 -7 -7 -13 -3 -13
3 0 -4 -24 -15 -52 -12 -29 -22 -60 -24 -68 -2 -8 -34 -100 -70 -205 -37 -104
-68 -194 -69 -200 -2 -5 -8 -23 -14 -38 -7 -16 -12 -33 -12 -39 0 -5 -6 -24
-14 -41 -8 -18 -18 -45 -23 -62 l-10 -30 -114 0 -114 0 1 75 c1 68 4 137 19
400 8 138 16 270 19 350 2 41 7 131 11 200 13 214 11 343 -10 670 -2 30 -6
100 -9 155 -3 55 -8 136 -11 180 -3 44 -7 118 -10 165 -3 47 -8 123 -11 170
-3 47 -6 91 -5 98 2 23 1 37 -3 77 -2 22 -7 90 -11 150 -3 61 -8 139 -10 175
-7 92 -14 214 -29 495 -4 61 -8 142 -11 180 -6 88 -15 229 -20 320 -2 39 -6
111 -9 160 -3 50 -9 133 -12 185 -3 52 -7 122 -9 155 -2 33 -7 107 -10 165 -3
58 -8 137 -10 175 -3 39 -7 111 -10 160 -3 50 -7 128 -11 175 -3 47 -7 116 -9
154 -5 86 -15 248 -21 341 -2 39 -6 111 -9 160 -3 50 -7 122 -10 160 -3 39 -7
113 -10 165 -2 52 -7 133 -10 180 -11 163 -16 245 -18 292 -1 25 -5 50 -10 54
-4 4 -356 8 -783 8 -768 1 -777 1 -784 -19z"/>
<path d="M8230 9562 c-10 -4 -100 -183 -100 -200 0 -6 -3 -12 -7 -14 -7 -2
-84 -152 -88 -168 -4 -17 -161 -326 -167 -328 -5 -2 -8 -9 -8 -16 0 -10 -214
-453 -252 -521 -20 -37 -27 -49 -107 -214 -44 -90 -86 -170 -92 -177 -6 -8 -9
-14 -6 -14 3 0 -61 -134 -142 -297 -82 -164 -186 -374 -232 -468 -46 -93 -87
-171 -91 -173 -5 -2 -8 -10 -8 -18 0 -19 -29 -77 -44 -86 -6 -4 -7 -8 -2 -8 5
0 3 -7 -4 -15 -7 -8 -9 -15 -4 -15 5 0 4 -4 -2 -8 -8 -5 -80 -144 -90 -172
-11 -33 -30 -70 -36 -70 -4 0 -8 -4 -8 -9 0 -14 -123 -265 -133 -272 -5 -3 -8
-9 -8 -13 1 -3 -62 -136 -141 -294 -78 -158 -142 -289 -143 -292 -4 -17 -91
-186 -97 -188 -5 -2 -8 -9 -8 -15 0 -7 -31 -74 -70 -149 -38 -76 -66 -138 -62
-138 4 0 3 -4 -3 -8 -5 -4 -65 -117 -131 -252 -311 -629 -424 -860 -424 -869
0 -5 -3 -11 -7 -13 -5 -1 -18 -23 -30 -48 -12 -25 -122 -250 -246 -500 -523
-1061 -709 -1437 -725 -1470 -9 -19 -20 -36 -24 -38 -5 -2 -8 -8 -8 -13 0 -5
-67 -146 -150 -314 -82 -168 -150 -307 -150 -308 0 -2 1600 0 1642 2 11 1 29
27 52 74 19 39 57 122 86 182 29 61 66 139 82 175 16 36 43 91 59 123 16 31
26 57 22 57 -5 0 -2 4 5 9 7 4 15 14 16 22 2 8 26 64 55 124 29 61 64 135 78
165 14 30 28 57 32 60 3 3 7 10 8 15 1 6 27 64 58 129 31 65 64 137 75 160 10
23 48 103 84 180 36 76 66 142 66 147 0 5 6 10 13 10 6 1 603 2 1325 3 869 1
1312 -2 1313 -9 0 -5 2 -18 4 -28 3 -16 9 -84 21 -227 1 -25 6 -72 9 -105 3
-33 7 -89 10 -124 7 -103 15 -192 21 -241 3 -25 7 -72 10 -105 7 -113 12 -180
19 -235 3 -30 8 -82 10 -115 2 -33 6 -82 9 -110 3 -27 7 -77 10 -110 16 -187
19 -220 22 -224 2 -2 354 -4 783 -5 l780 -1 -5 55 c-2 30 -7 71 -9 90 -2 19
-9 82 -15 140 -6 58 -13 121 -15 140 -3 19 -7 62 -10 95 -3 33 -7 76 -10 95
-2 19 -7 60 -10 90 -3 30 -7 73 -9 95 -3 22 -8 65 -11 95 -3 30 -7 71 -10 90
-2 19 -7 67 -11 105 -10 117 -12 134 -19 193 -4 31 -9 75 -11 97 -2 22 -6 63
-9 90 -3 28 -7 73 -10 100 -3 28 -7 68 -10 90 -3 22 -8 72 -11 110 -3 39 -7
81 -10 95 -3 14 -7 43 -9 65 -2 22 -6 62 -9 88 -3 26 -8 52 -11 57 -3 6 -1 10
5 10 6 0 8 5 5 10 -8 13 -13 40 -20 125 -4 39 -8 84 -10 100 -2 17 -6 59 -10
95 -3 36 -8 77 -10 91 -3 15 -7 55 -10 90 -3 35 -7 80 -9 99 -5 39 -14 122
-21 190 -3 25 -7 70 -10 100 -4 30 -8 74 -11 98 -2 24 -6 58 -9 77 -2 18 -7
71 -11 117 -3 45 -8 92 -11 103 -2 11 -6 45 -9 75 -2 30 -6 71 -9 90 -2 19 -7
64 -10 100 -8 83 -13 125 -19 175 -3 22 -8 67 -11 100 -3 33 -8 80 -10 105 -3
25 -8 68 -11 95 -2 28 -6 64 -8 80 -2 17 -7 64 -10 105 -4 41 -9 86 -11 100
-4 22 -8 60 -20 190 -2 19 -6 58 -9 85 -14 123 -18 163 -21 204 -3 24 -7 60
-9 80 -3 20 -8 65 -11 101 -4 36 -9 83 -11 105 -3 22 -8 60 -10 85 -2 25 -6
61 -8 80 -2 19 -7 64 -10 100 -10 94 -24 224 -31 285 -2 17 -6 59 -9 95 -3 36
-8 76 -10 90 -2 14 -7 57 -11 95 -8 93 -13 141 -20 195 -18 151 -22 197 -30
296 -2 34 -6 75 -9 90 -7 45 -16 124 -21 189 -3 33 -7 76 -9 95 -10 73 -28
237 -31 290 -2 25 -4 45 -5 45 -2 0 -8 52 -14 125 -3 36 -8 83 -11 105 -5 42
-13 112 -19 180 -10 97 -16 163 -21 195 -2 19 -7 62 -11 95 -3 33 -7 74 -9 90
-2 17 -6 64 -10 105 -3 41 -10 79 -15 84 -8 8 -1835 16 -1860 8z m793 -1521
c7 -1 6 -32 -8 -246 -3 -44 -8 -111 -10 -150 -10 -181 -15 -264 -20 -315 -4
-57 -17 -261 -19 -317 -1 -18 -5 -35 -8 -38 -4 -4 -3 -18 2 -31 5 -13 6 -25 1
-28 -7 -5 -6 -251 2 -341 3 -27 8 -86 12 -130 3 -44 8 -93 10 -110 3 -16 7
-66 10 -110 3 -44 7 -105 10 -135 3 -30 7 -80 10 -110 2 -30 7 -82 10 -115 3
-33 8 -91 10 -130 2 -38 4 -70 5 -70 3 0 6 -37 14 -155 4 -58 9 -114 12 -125
2 -11 6 -56 9 -100 3 -44 7 -100 9 -125 3 -25 7 -79 10 -120 7 -86 13 -147 21
-240 4 -36 8 -85 10 -110 5 -72 16 -200 20 -237 3 -32 2 -33 -34 -34 -222 -3
-1833 0 -1837 4 -4 3 -2 12 2 19 5 7 9 15 9 18 1 3 18 41 39 85 21 44 53 112
71 150 18 39 54 115 80 170 26 55 63 134 82 175 19 41 48 101 64 133 16 31 29
60 30 65 4 17 35 77 42 80 4 2 7 12 7 23 0 10 4 19 8 19 5 0 9 6 9 13 0 6 28
71 63 142 34 72 73 155 87 185 14 30 29 62 34 70 5 8 12 22 15 30 4 8 24 53
47 100 49 105 90 193 92 200 1 3 19 41 40 85 21 44 38 83 37 88 -1 4 2 7 8 7
5 0 10 4 10 9 0 5 17 44 37 87 20 44 37 81 38 84 1 3 21 46 44 95 24 50 54
115 68 145 25 54 102 269 108 300 2 8 4 16 5 18 2 1 3 5 5 10 1 4 4 14 8 22 8
21 318 940 325 965 3 11 9 22 13 25 6 4 190 5 222 1z"/>
</g>
</svg>
